<svg width="356" height="269" viewBox="0 0 356 269" fill="none" xmlns="http://www.w3.org/2000/svg">
<g id="thought_bubble">
<g id="bubble_3">
<path d="M199.923 243.174C188.188 240.626 180.69 237.522 171.716 231.478L166.85 228.201L158.505 232.316C153.922 234.573 147.298 237.021 143.791 237.759C70.4481 243.174 70.4481 192.358 70.4481 192.358C69.3092 187.952 68.3799 185.977 67.5599 186.196C66.8948 186.378 63.0683 186.733 59.0595 186.988C45.7849 187.852 34.9703 183.583 25.6225 173.799C20.0649 167.974 17.6505 163.841 15.4275 156.35C12.4391 146.274 14.2704 132.112 19.7278 123.192C23.1717 117.549 30.925 110.331 36.592 107.491L41.8308 104.86L42.9696 98.9441C47.2791 76.5623 67.5781 59.8055 90.41 59.8055H95.6944L96.2774 54.2715C98.546 32.5906 114.936 12.7665 136.957 5.06617C141.987 3.30949 144.729 3 155.179 3C165.629 3 168.372 3.30949 173.401 5.06617C190.038 10.8823 203.276 23.1063 209.963 38.7981C211.393 42.1659 213.024 44.7053 213.68 44.6052C214.327 44.5051 217.315 43.5221 220.322 42.4389C227.766 39.7356 240.967 39.0985 249.231 41.0372C265.193 44.7872 279.406 55.9645 286.121 70.0271C288.225 74.4324 288.963 75.2425 290.476 74.8056C294.539 73.6315 307.213 73.322 312.342 74.2777C321.134 75.9251 330.345 80.8311 337.406 87.6485C357.751 107.263 358.243 137.882 338.563 158.253C328.131 169.048 315.03 174.163 299.915 173.344L292.052 172.916L290.959 179.688C284.864 217.416 252.584 244.74 214.4 244.494C209.635 244.458 203.121 243.866 199.923 243.174Z" fill="white"/>
<path d="M199.923 243.174C188.188 240.626 180.69 237.522 171.716 231.478L166.85 228.201L158.505 232.316C153.922 234.573 147.298 237.021 143.791 237.759C70.4481 243.174 70.4481 192.358 70.4481 192.358C69.3092 187.952 68.3799 185.977 67.5599 186.196C66.8948 186.378 63.0683 186.733 59.0595 186.988C45.7849 187.852 34.9703 183.583 25.6225 173.799C20.0649 167.974 17.6505 163.841 15.4275 156.35C12.4391 146.274 14.2704 132.112 19.7278 123.192C23.1717 117.549 30.925 110.331 36.592 107.491L41.8308 104.86L42.9696 98.9441C47.2791 76.5623 67.5781 59.8055 90.41 59.8055H95.6944L96.2774 54.2715C98.546 32.5906 114.936 12.7665 136.957 5.06617C141.987 3.30949 144.729 3 155.179 3C165.629 3 168.372 3.30949 173.401 5.06617C190.038 10.8823 203.276 23.1063 209.963 38.7981C211.393 42.1659 213.024 44.7053 213.68 44.6052C214.327 44.5051 217.315 43.5221 220.322 42.4389C227.766 39.7356 240.967 39.0985 249.231 41.0372C265.193 44.7872 279.406 55.9645 286.121 70.0271C288.225 74.4324 288.963 75.2425 290.476 74.8056C294.539 73.6315 307.213 73.322 312.342 74.2777C321.134 75.9251 330.345 80.8311 337.406 87.6485C357.751 107.263 358.243 137.882 338.563 158.253C328.131 169.048 315.03 174.163 299.915 173.344L292.052 172.916L290.959 179.688C284.864 217.416 252.584 244.74 214.4 244.494C209.635 244.458 203.121 243.866 199.923 243.174Z" fill="white"/>
<path d="M199.923 243.174C188.188 240.626 180.69 237.522 171.716 231.478L166.85 228.201L158.505 232.316C153.922 234.573 147.298 237.021 143.791 237.759C70.4481 243.174 70.4481 192.358 70.4481 192.358C69.3092 187.952 68.3799 185.977 67.5599 186.196C66.8948 186.378 63.0683 186.733 59.0595 186.988C45.7849 187.852 34.9703 183.583 25.6225 173.799C20.0649 167.974 17.6505 163.841 15.4275 156.35C12.4391 146.274 14.2704 132.112 19.7278 123.192C23.1717 117.549 30.925 110.331 36.592 107.491L41.8308 104.86L42.9696 98.9441C47.2791 76.5623 67.5781 59.8055 90.41 59.8055H95.6944L96.2774 54.2715C98.546 32.5906 114.936 12.7665 136.957 5.06617C141.987 3.30949 144.729 3 155.179 3C165.629 3 168.372 3.30949 173.401 5.06617C190.038 10.8823 203.276 23.1063 209.963 38.7981C211.393 42.1659 213.024 44.7053 213.68 44.6052C214.327 44.5051 217.315 43.5221 220.322 42.4389C227.766 39.7356 240.967 39.0985 249.231 41.0372C265.193 44.7872 279.406 55.9645 286.121 70.0271C288.225 74.4324 288.963 75.2425 290.476 74.8056C294.539 73.6315 307.213 73.322 312.342 74.2777C321.134 75.9251 330.345 80.8311 337.406 87.6485C357.751 107.263 358.243 137.882 338.563 158.253C328.131 169.048 315.03 174.163 299.915 173.344L292.052 172.916L290.959 179.688C284.864 217.416 252.584 244.74 214.4 244.494C209.635 244.458 203.121 243.866 199.923 243.174Z" stroke="black" stroke-width="6"/>
</g>
<g id="bubble_2">
<path d="M27.0984 222.474C22.4883 231.075 26.078 242.025 35.0704 246.831C43.6802 251.427 54.6315 247.841 59.442 238.858C64.043 230.256 60.4625 219.316 51.47 214.51C42.8602 209.913 31.8999 213.49 27.0984 222.474Z" fill="white"/>
<path d="M27.0984 222.474C22.4883 231.075 26.078 242.025 35.0704 246.831C43.6802 251.427 54.6315 247.841 59.442 238.858C64.043 230.256 60.4625 219.316 51.47 214.51C42.8602 209.913 31.8999 213.49 27.0984 222.474Z" fill="white"/>
<path d="M35.0704 246.831C26.078 242.025 22.4883 231.075 27.0984 222.474C31.8999 213.49 42.8602 209.913 51.47 214.51C60.4625 219.316 64.043 230.256 59.442 238.858C54.6315 247.841 43.6802 251.427 35.0704 246.831Z" stroke="black" stroke-width="6"/>
</g>
<path id="bubble_1" d="M8.62155 245.702C1.67905 249.288 1.56973 260.111 8.43023 263.833C17.7233 268.867 27.6177 259.146 22.7525 249.753C20.2015 244.819 13.8512 242.999 8.62155 245.702Z" fill="white" stroke="black" stroke-width="6"/>
</g>
</svg>
